<svg xmlns="http://www.w3.org/2000/svg" viewBox="0 0 24 24" fill="currentColor">
  <path d="M17.472 14.382c-.297-.149-1.758-.867-2.03-.967-.273-.099-.471-.148-.67.15-.198.297-.768.966-.94 1.159-.173.193-.347.217-.644.051-.297-.149-1.255-.463-2.39-1.475-.883-.788-1.48-1.761-1.653-2.059-.173-.297-.018-.458.13-.606.134-.133.298-.347.446-.52.149-.174.198-.298.298-.497.099-.198.05-.371-.025-.52-.075-.149-.669-1.612-.916-2.207-.242-.579-.487-.5-.67-.51-.173-.008-.371-.01-.57-.01-.198 0-.52.074-.792.372-.272.297-1.04 1.016-1.04 2.479 0 1.462 1.065 2.875 1.213 3.074.149.198 2.096 3.2 5.076 4.487.709.306 1.262.489 1.694.625.712.227 1.36.195 1.871.118.571-.085 1.758-.719 2.006-1.413.248-.694.248-1.289.173-1.413-.074-.124-.272-.198-.57-.347m-5.421-7.403h-.004c-1.052 0-2.082.365-2.906 1.009l-.193.12-1.974.523.531-1.932.11-.175A4.908 4.908 0 0 1 6.5 7.5c0-2.7 2.201-4.9 4.9-4.9 1.309 0 2.54.51 3.465 1.435.925.925 1.435 2.156 1.435 3.465 0 2.699-2.201 4.9-4.9 4.9m8.596-9.038C13.608 1.255 10.904 0 7.999 0 3.645 0 .036 3.609.036 7.999c0 1.409.331 2.779.961 4.018L0 24l12.309-4.064c1.199.657 2.571 1.003 3.99 1.003 4.354 0 7.963-3.609 7.963-7.999 0-2.134-.848-4.137-2.387-5.645z" fill="currentColor"/>
</svg>